<svg width="22" height="22" viewBox="0 0 22 22" fill="none" xmlns="http://www.w3.org/2000/svg">
<path d="M3.54231 15.0839C2.75586 11.9381 2.36263 10.3652 3.18839 9.30762C4.01416 8.25 5.63547 8.25 8.87809 8.25H13.1229C16.3655 8.25 17.9868 8.25 18.8126 9.30762C19.6383 10.3652 19.2451 11.9381 18.4587 15.0839C17.9585 17.0847 17.7084 18.0851 16.9624 18.6676C16.2164 19.25 15.1853 19.25 13.1229 19.25H8.87809C6.81573 19.25 5.78454 19.25 5.03857 18.6676C4.29261 18.0851 4.04251 17.0847 3.54231 15.0839Z" stroke="#0B0C10" stroke-width="1.4"/>
<path d="M17.875 8.70841L17.2238 6.32017C16.9727 5.39929 16.8472 4.93885 16.5896 4.59209C16.3332 4.24675 15.9847 3.98056 15.584 3.82398C15.1818 3.66675 14.7045 3.66675 13.75 3.66675M4.125 8.70841L4.7762 6.32017C5.02729 5.39929 5.15284 4.93885 5.41036 4.59209C5.66682 4.24675 6.01531 3.98056 6.41595 3.82398C6.81824 3.66675 7.2955 3.66675 8.25 3.66675" stroke="#0B0C10" stroke-width="1.4"/>
<path d="M8.25 3.66667C8.25 3.16041 8.66041 2.75 9.16667 2.75H12.8333C13.3396 2.75 13.75 3.16041 13.75 3.66667C13.75 4.17293 13.3396 4.58333 12.8333 4.58333H9.16667C8.66041 4.58333 8.25 4.17293 8.25 3.66667Z" stroke="#0B0C10" stroke-width="1.4"/>
<path d="M7.33325 11.9167V15.5834" stroke="#0B0C10" stroke-width="1.4" stroke-linecap="round" stroke-linejoin="round"/>
<path d="M14.6667 11.9167V15.5834" stroke="#0B0C10" stroke-width="1.4" stroke-linecap="round" stroke-linejoin="round"/>
<path d="M11 11.9167V15.5834" stroke="#0B0C10" stroke-width="1.4" stroke-linecap="round" stroke-linejoin="round"/>
</svg>
